<svg xmlns="http://www.w3.org/2000/svg" width="32" height="32" viewBox="0 0 32 32">
    <path fill="#8493A8" fill-rule="evenodd" d="M21 19v5h-4v-5h-2v5a2 2 0 0 0 2 2h4a2 2 0 0 0 2-2v-5h-2zM17 8v5h-2V8a2 2 0 0 1 2-2h4a2 2 0 0 1 2 2v5h-2V8h-4zm-7 11h2v5a2 2 0 0 1-2 2H6a2 2 0 0 1-2-2V8a2 2 0 0 1 2-2h4a2 2 0 0 1 2 2v5h-2V8H6v16h4v-5zm16-3a1 1 0 1 0 2 0 1 1 0 0 0-2 0zm-13 .5h-2.059a.5.5 0 0 1 0-1H13v-2a.5.5 0 0 1 1 0v2h2.06a.5.5 0 0 1 0 1H14v2a.5.5 0 0 1-1 0v-2zm11 .5a1 1 0 1 1 0-2 1 1 0 0 1 0 2z"/>
</svg>
