<svg xmlns="http://www.w3.org/2000/svg" width="32" height="32" viewBox="0 0 32 32">
    <g fill="none" fill-rule="evenodd">
        <path fill="#8493A8" d="M19.283 9.502l-3.375 3.571a1.146 1.146 0 0 1-.835.356c-.333 0-.631-.138-.837-.356l-3.375-3.571a1.036 1.036 0 0 1-.289-.716c0-.593.504-1.072 1.125-1.072.332 0 .63.136.836.355l1.414 1.496V3.07c0-.592.503-1.071 1.126-1.071.62 0 1.124.479 1.124 1.071v6.494l1.414-1.496c.206-.219.504-.355.836-.355.621 0 1.125.48 1.125 1.072 0 .275-.109.526-.289.716zM4.5 7.714h3a1 1 0 0 1 1 1V21a1 1 0 0 1-1 1h-3a1 1 0 0 1-1-1V8.714a1 1 0 0 1 1-1zm18 0h3a1 1 0 0 1 1 1V21a1 1 0 0 1-1 1h-3a1 1 0 0 1-1-1V8.714a1 1 0 0 1 1-1zm-9 6.667h3a1 1 0 0 1 1 1V21a1 1 0 0 1-1 1h-3a1 1 0 0 1-1-1v-5.619a1 1 0 0 1 1-1z"/>
        <path fill="#F90" d="M32 22a8 8 0 1 1-16 0 8 8 0 0 1 16 0"/>
        <path fill="#FFF" d="M17.476 23.852c.56.504 1.312.744 1.968.744 1.296 0 2.032-.784 2.032-1.664 0-.72-.368-1.168-1.016-1.424l-.632-.248c-.472-.184-.768-.272-.768-.52 0-.232.208-.352.544-.352.384 0 .688.128 1.04.376l.688-.864a2.5 2.5 0 0 0-1.728-.696c-1.136 0-1.936.728-1.936 1.616 0 .752.488 1.224 1.048 1.448l.648.272c.44.176.704.256.704.504 0 .232-.176.368-.592.368-.384 0-.848-.208-1.216-.504l-.784.944zm6.492-3.464c-.624 0-1.008.544-1.008 1.488s.384 1.536 1.008 1.536 1.008-.592 1.008-1.536c0-.944-.384-1.488-1.008-1.488zm2.512 4.4l.24.992c-.208.112-.552.192-.992.192-1.168 0-1.984-.592-2.384-1.448-1.088-.248-1.792-1.2-1.792-2.648 0-1.712.976-2.672 2.416-2.672s2.416.968 2.416 2.672c0 1.36-.616 2.272-1.592 2.592.24.328.704.416 1.096.416.224 0 .432-.04.592-.096zm.044-.936l.784-.944c.368.296.832.504 1.216.504.416 0 .592-.136.592-.368 0-.248-.264-.328-.704-.504l-.648-.272c-.56-.224-1.048-.696-1.048-1.448 0-.888.8-1.616 1.936-1.616a2.5 2.5 0 0 1 1.728.696l-.688.864c-.352-.248-.656-.376-1.04-.376-.336 0-.544.12-.544.352 0 .248.296.336.768.52l.632.248c.648.256 1.016.704 1.016 1.424 0 .88-.736 1.664-2.032 1.664-.656 0-1.408-.24-1.968-.744z"/>
    </g>
</svg>
