<svg xmlns="http://www.w3.org/2000/svg" width="100" height="100" viewBox="0 0 100 100">
    <g fill="none" fill-rule="evenodd">
        <rect width="100" height="100" fill="#F90" rx="16"/>
        <path fill="#FFF" d="M14 61.244a14.487 14.487 0 0 0 10.505 4.45c6.33 0 10.275-3.808 10.275-8.579 0-4.45-2.706-6.514-6.193-8.028l-4.312-1.834c-2.34-1.01-5-2.11-5-5 0-2.707 2.248-4.404 5.643-4.404 2.752 0 5 1.1 6.835 2.844l2.018-2.477c-2.11-2.202-5.275-3.716-8.853-3.716-5.46 0-9.496 3.395-9.496 7.982 0 4.404 3.303 6.56 6.101 7.752l4.312 1.881c2.844 1.284 5.046 2.248 5.046 5.321 0 2.936-2.34 4.909-6.284 4.909-3.166 0-6.147-1.514-8.303-3.762L14 61.243zm26.94-11.285c0 7.523 3.532 12.386 8.9 12.386 5.367 0 8.899-4.863 8.899-12.386 0-7.477-3.532-12.11-8.9-12.11-5.367 0-8.899 4.633-8.899 12.11zm21.698 19.037l.734 2.982c-.918.32-2.523.688-4.312.688-5.55 0-9.358-2.982-11.101-7.11-6.56-.918-10.964-6.744-10.964-15.597 0-9.633 5.276-15.459 12.844-15.459 7.57 0 12.89 5.872 12.89 15.459 0 8.67-4.266 14.45-10.642 15.55 1.376 2.661 4.129 3.946 7.386 3.946 1.33 0 2.34-.23 3.165-.459zm2.582-7.752a14.487 14.487 0 0 0 10.505 4.45c6.33 0 10.275-3.808 10.275-8.579 0-4.45-2.706-6.514-6.193-8.028l-4.312-1.834c-2.34-1.01-5-2.11-5-5 0-2.707 2.248-4.404 5.642-4.404 2.753 0 5 1.1 6.835 2.844l2.019-2.477c-2.11-2.202-5.276-3.716-8.854-3.716-5.458 0-9.495 3.395-9.495 7.982 0 4.404 3.303 6.56 6.1 7.752l4.313 1.881c2.844 1.284 5.046 2.248 5.046 5.321 0 2.936-2.34 4.909-6.285 4.909-3.165 0-6.147-1.514-8.303-3.762l-2.293 2.66z"/>
    </g>
</svg>
